<?xml version="1.0" encoding="utf-8"?>
<!-- Generator: Adobe Illustrator 27.7.0, SVG Export Plug-In . SVG Version: 6.00 Build 0)  -->
<svg version="1.1" id="Layer_1" xmlns="http://www.w3.org/2000/svg" xmlns:xlink="http://www.w3.org/1999/xlink" x="0px" y="0px"
	 viewBox="0 0 804.6 767.7" style="enable-background:new 0 0 804.6 767.7;" xml:space="preserve">
<style type="text/css">
	.st0{fill:#4F4F7D;}
	.st1{fill:#B4B4D6;}
	.st2{fill:none;stroke:#11113C;stroke-opacity:0.88;}
	.st3{fill:none;stroke:#185124;stroke-width:6;stroke-linecap:round;}
	.st4{fill:none;stroke:url(#SVGID_1_);stroke-width:10;stroke-linecap:round;}
	.st5{fill:none;stroke:url(#SVGID_00000073689996974234512320000013040886792829290143_);stroke-width:7;stroke-linecap:round;}
	.st6{fill:url(#SVGID_00000158731050595779085510000013693483026855789477_);}
	.st7{fill:none;stroke:#185124;stroke-width:7;stroke-linecap:square;}
	.st8{fill:#192B14;stroke:#142210;stroke-miterlimit:10;}
	.st9{fill:none;stroke:#364833;stroke-miterlimit:10;}
	.st10{fill:#193418;stroke:#192B14;stroke-width:0.2;stroke-miterlimit:10;}
	.st11{fill:none;stroke:#185124;stroke-miterlimit:10;}
</style>
<g>
	<path class="st0" d="M1101.1,90.3h499.4c22.1,0,40,17.9,40,40v606c0,22.1-17.9,40-40,40h-499.4c-22.1,0-40-17.9-40-40v-606
		C1061.1,108.2,1079,90.3,1101.1,90.3z"/>
</g>
<g>
	<path class="st1" d="M1153.1,110.2h402.1c39.8,0,72,32.2,72,72v502c0,39.8-32.2,72-72,72h-402.1c-39.8,0-72-32.2-72-72v-502
		C1081.1,142.5,1113.3,110.2,1153.1,110.2z"/>
	<path class="st2" d="M1153.1,110.7h402.1c39.5,0,71.5,32,71.5,71.5v502c0,39.5-32,71.5-71.5,71.5h-402.1c-39.5,0-71.5-32-71.5-71.5
		v-502C1081.6,142.7,1113.6,110.7,1153.1,110.7z"/>
</g>
<g>
	<path class="st3" d="M1061.1,383.3c0,0,31.6,56.9,36.1,99.8c6.2,59.5-36.1,143.3-36.1,143.3"/>
</g>
<g>
	
		<linearGradient id="SVGID_1_" gradientUnits="userSpaceOnUse" x1="1580.5394" y1="549.8797" x2="1630.8655" y2="559.7517" gradientTransform="matrix(1 0 0 -1 0 868.6172)">
		<stop  offset="0" style="stop-color:#185124"/>
		<stop  offset="1" style="stop-color:#192B14"/>
	</linearGradient>
	<path class="st4" d="M1639.1,170.3c0,0-36.2,63.3-41.3,111c-7.1,66.2,41.3,163,41.3,163"/>
</g>
<g>
	
		<linearGradient id="SVGID_00000114073379797746139460000000456010132808916146_" gradientUnits="userSpaceOnUse" x1="1354.0364" y1="152.7957" x2="1353.9603" y2="99.3637" gradientTransform="matrix(1 0 0 -1 0 868.6172)">
		<stop  offset="0" style="stop-color:#185124"/>
		<stop  offset="1" style="stop-color:#192B14"/>
	</linearGradient>
	
		<path style="fill:none;stroke:url(#SVGID_00000114073379797746139460000000456010132808916146_);stroke-width:7;stroke-linecap:round;" d="
		M1081.1,699.4c3.3,33.3,120.2,23.3,193.5,24.3c104.9,1.5,166.3,69.1,266.2,36.9c42.4-13.7,89.5-77.6,86.1-80.9 M1117.9,90.3
		c30.7,23.9,42.2,57.5,89.6,58.6c50.3,1.1,134.9-58.6,134.9-58.6"/>
</g>
<g>
	
		<linearGradient id="SVGID_00000096048508168724781630000011124920739079768712_" gradientUnits="userSpaceOnUse" x1="1618.0083" y1="758.2059" x2="1475.8643" y2="737.7173" gradientTransform="matrix(1 0 0 -1 0 868.6172)">
		<stop  offset="0" style="stop-color:#192B14"/>
		<stop  offset="1" style="stop-color:#185124"/>
	</linearGradient>
	<path style="fill:url(#SVGID_00000096048508168724781630000011124920739079768712_);" d="M1554.5,134.6l-2.1-2.8l-0.1,0.1l-0.1,0.1
		L1554.5,134.6z M1455,148.9l-2.5,2.5l0,0L1455,148.9z M1455,107.1l2.7,2.2l0,0L1455,107.1z M1492.2,101.9l-2.8,2.1l0,0
		L1492.2,101.9z M1497,121.5l3.4,1L1497,121.5z M1477.8,134.6l-1.7,3.1L1477.8,134.6z M1475.3,115.1c0.1-1.9-1.4-3.6-3.4-3.6
		c-1.9-0.1-3.6,1.4-3.6,3.4L1475.3,115.1z M1605.9,88.8c0.2-0.3,0.3-0.5,0.2-0.3c-0.1,0.1-0.2,0.2-0.4,0.4c-0.4,0.4-1,1-1.8,1.7
		c-1.5,1.4-3.7,3.2-6.3,5.4c-5.2,4.3-11.9,9.7-18.6,15c-6.7,5.3-13.4,10.6-18.4,14.5c-2.5,1.9-4.6,3.6-6,4.7c-0.7,0.6-1.3,1-1.7,1.3
		c-0.2,0.2-0.3,0.3-0.4,0.3c-0.1,0-0.1,0.1-0.1,0.1c0,0,0,0,0,0c0,0,0,0,0,0c0,0,0,0,0,0c0,0,0,0,2.1,2.8c2.1,2.8,2.1,2.8,2.1,2.8
		c0,0,0,0,0,0c0,0,0,0,0,0c0,0,0,0,0,0c0,0,0.1,0,0.1-0.1c0.1-0.1,0.2-0.2,0.4-0.3c0.4-0.3,1-0.7,1.7-1.3c1.5-1.1,3.5-2.8,6-4.7
		c5-3.9,11.7-9.2,18.4-14.5c6.7-5.3,13.5-10.8,18.7-15.1c2.6-2.2,4.8-4.1,6.5-5.5c0.8-0.7,1.5-1.4,2.1-1.9c0.3-0.3,0.5-0.6,0.8-0.8
		c0.2-0.2,0.5-0.6,0.8-1.2L1605.9,88.8z M1554.5,134.6c-2.3-2.6-2.3-2.6-2.3-2.6c0,0,0,0,0,0c0,0,0,0,0,0c0,0,0,0,0,0
		c0,0,0,0-0.1,0.1c-0.1,0-0.1,0.1-0.3,0.2c-0.2,0.2-0.6,0.5-1.1,0.9c-0.9,0.8-2.3,1.9-4,3.2c-3.4,2.6-8.2,6.2-13.7,9.7
		c-11.3,7.1-24.9,13.8-36.1,13.8v7c13.4,0,28.5-7.7,39.9-14.9c5.8-3.7,10.7-7.3,14.3-10c1.8-1.4,3.2-2.5,4.2-3.3
		c0.5-0.4,0.9-0.7,1.1-0.9c0.1-0.1,0.2-0.2,0.3-0.3c0,0,0.1-0.1,0.1-0.1c0,0,0,0,0,0c0,0,0,0,0,0c0,0,0,0,0,0
		C1556.8,137.2,1556.8,137.2,1554.5,134.6z M1497,159.8c-16.7,0-29.8-3.5-39.5-13.3l-5,4.9c11.6,11.6,26.8,15.4,44.5,15.4V159.8z
		 M1457.5,146.4c-9.6-9.6-8.9-26,0.2-37.1l-5.4-4.5c-10.9,13.2-12.4,33.7,0.2,46.5L1457.5,146.4z M1457.7,109.4
		c4.4-5.4,10.7-9.3,16.7-10.5c5.9-1.2,11.3,0.3,15,5.1l5.6-4.3c-5.7-7.4-14-9.3-21.9-7.7c-7.8,1.5-15.4,6.4-20.7,12.9L1457.7,109.4z
		 M1489.4,104c4.3,5.6,6,10.4,4.2,16.5l6.7,1.9c2.6-9-0.4-16.1-5.4-22.7L1489.4,104z M1493.6,120.5c-1.1,4-3.6,7.6-6.4,9.8
		c-2.7,2.1-5.4,2.5-7.8,1.2l-3.3,6.2c5.5,3,11.2,1.4,15.4-1.8c4.2-3.2,7.4-8.2,8.9-13.4L1493.6,120.5z M1479.4,131.5
		c-0.7-0.4-1.5-1.2-2.2-2.9c-0.7-1.6-1.2-3.6-1.5-5.7c-0.3-2-0.4-4-0.5-5.5c0-0.7,0-1.3,0-1.7c0-0.2,0-0.4,0-0.5c0-0.1,0-0.1,0-0.1
		c0,0,0,0,0,0c0,0,0,0,0,0s0,0,0,0c0,0,0,0,0,0c0,0,0,0-3.5-0.1c-3.5-0.1-3.5-0.1-3.5-0.1c0,0,0,0,0,0c0,0,0,0,0,0c0,0,0,0,0,0
		c0,0,0,0,0,0c0,0,0,0.1,0,0.2c0,0.1,0,0.3,0,0.6c0,0.5,0,1.2,0,2c0,1.7,0.2,3.9,0.5,6.3c0.4,2.4,1,5.1,2,7.4c1,2.4,2.6,4.8,5.3,6.3
		L1479.4,131.5z"/>
</g>
<g>
	<path class="st7" d="M1059.9,272.1c0,0,54,10.2,65.2-10.3c4.2-7.8,6.1-15.8,0.8-23.7c-4-5.9-13.6-8-16.7-8.4
		c-3.1-0.4-8.6-0.3-12.6,2.4c-4.7,3.2-7.7,7-6.4,12.6c1.7,7.3,12.3,13.5,18.1,9.2c3.9-2.9,6-8.2,2.6-12.2c-1.8-2-3.8-1.9-6.2-3.1"/>
</g>
<path class="st8" d="M1499.8,753.4c-1,2.1-2.4,3.9-4.2,5.4c-1.8,1.5-3.9,2.6-6.2,3.3l-2.9,0.8c-5.4,1.4-11.2,0.7-16-1.8
	c-20.5-15,4-50.1,4-50.1l19.6,16.2c3.8,3.2,6.3,7.4,7.4,12.1C1502.4,744,1501.8,748.9,1499.8,753.4z"/>
<path class="st9" d="M1474,729.6l10.1,38.6"/>
<path class="st9" d="M1467.4,736.3l9.8,11.2"/>
<path class="st9" d="M1487.1,734.6l-4.7,8.1"/>
<path class="st10" d="M1545,124.4c0.2,1.5,0.1,3-0.3,4.5c-0.4,1.5-1.1,2.9-2.1,4.2l-1.3,1.5c-2.4,2.9-5.7,4.8-9.2,5.5
	c-16.3,0.5-16-27.4-16-27.4l16.3,0.5c3.1,0.1,6,1.3,8.3,3.3C1543,118.5,1544.5,121.3,1545,124.4z"/>
<path class="st11" d="M1527.3,123.6l20.9,17.1"/>
<path class="st11" d="M1527.3,130.2l9.8,2.2"/>
<path class="st11" d="M1536.8,126.7l0.6,6.3"/>
<path class="st8" d="M1067.3,627.3c-0.2-2.1,0.2-4.3,0.9-6.3c0.8-2,2-3.9,3.5-5.5l2-1.9c3.8-3.6,8.7-5.7,13.7-5.9
	c23.4,2.7,19.7,42.2,19.7,42.2l-23.2-4.2c-4.5-0.8-8.5-3.1-11.4-6.4C1069.5,636.1,1067.7,631.9,1067.3,627.3z"/>
<path class="st9" d="M1094.4,636.4l-25.8-26.5"/>
<path class="st9" d="M1087.8,623.1l-13-4.5"/>
<path class="st9" d="M1083.3,634l0.1-8.7"/>
</svg>
